<svg xmlns="http://www.w3.org/2000/svg" width="36.779" height="26.5" viewBox="0 0 36.779 26.5">
    <defs>
        <style>
            .cls-1{fill:#fff;stroke:#fff;stroke-width:.5px}
        </style>
    </defs>
    <g id="truck" transform="translate(.25 .25)">
        <g id="Group_3828" transform="translate(4.837 18.744)">
            <g id="Group_3827">
                <path id="Path_10722" d="M71.895 337.067a3.628 3.628 0 1 0 3.628 3.628 3.632 3.632 0 0 0-3.628-3.628zm0 6.046a2.419 2.419 0 1 1 2.419-2.419 2.421 2.421 0 0 1-2.419 2.419z" class="cls-1" transform="translate(-68.267 -337.067)"/>
            </g>
        </g>
        <g id="Group_3830" transform="translate(25.395 18.744)">
            <g id="Group_3829">
                <path id="Path_10723" d="M362.028 337.067a3.628 3.628 0 1 0 3.628 3.628 3.631 3.631 0 0 0-3.628-3.628zm0 6.046a2.419 2.419 0 1 1 2.419-2.419 2.421 2.421 0 0 1-2.419 2.419z" class="cls-1" transform="translate(-358.4 -337.067)"/>
            </g>
        </g>
        <g id="Group_3832" transform="translate(22.977 6.651)">
            <g id="Group_3831">
                <path id="Path_10724" d="M337.473 175.143l-5.442-8.465a.6.6 0 0 0-.509-.278h-6.651a.6.6 0 0 0-.6.6v15.116a.6.6 0 0 0 .6.6h2.419v-1.209h-1.814v-13.898h5.716l5.167 8.038v5.869h-3.023v1.209h3.628a.6.6 0 0 0 .6-.6v-6.655a.6.6 0 0 0-.091-.327z" class="cls-1" transform="translate(-324.267 -166.4)"/>
            </g>
        </g>
        <g id="Group_3834" transform="translate(25.395 9.07)">
            <g id="Group_3833">
                <path id="Path_10725" d="M359.61 205.975v-4.233h4.837v-1.209h-5.442a.6.6 0 0 0-.6.6v5.442a.6.6 0 0 0 .6.6h9.07v-1.209h-8.465z" class="cls-1" transform="translate(-358.401 -200.533)"/>
            </g>
        </g>
        <g id="Group_3836" transform="translate(0 2.419)">
            <g id="Group_3835">
                <path id="Path_10726" d="M23.581 106.667H.6a.6.6 0 0 0-.6.6v19.353a.6.6 0 0 0 .6.6h4.842v-1.209H1.209v-18.14h21.768v18.14H11.488v1.209h12.093a.6.6 0 0 0 .6-.6v-19.348a.6.6 0 0 0-.6-.605z" class="cls-1" transform="translate(0 -106.667)"/>
            </g>
        </g>
        <g id="Group_3838" transform="translate(.605 19.349)">
            <g id="Group_3837">
                <path id="Rectangle_2447" d="M0 0H3.628V1.209H0z" class="cls-1"/>
            </g>
        </g>
        <g id="Group_3840" transform="translate(12.698 19.349)">
            <g id="Group_3839">
                <path id="Rectangle_2448" d="M0 0H10.279V1.209H0z" class="cls-1"/>
            </g>
        </g>
        <g id="Group_3842" transform="translate(33.256 19.349)">
            <g id="Group_3841">
                <path id="Rectangle_2449" d="M0 0H2.419V1.209H0z" class="cls-1"/>
            </g>
        </g>
        <g id="Group_3844" transform="translate(2.419 4.837)">
            <g id="Group_3843">
                <path id="Rectangle_2450" d="M0 0H21.163V1.209H0z" class="cls-1"/>
            </g>
        </g>
        <g id="Group_3846" transform="translate(7.86 21.767)">
            <g id="Group_3845">
                <path id="Rectangle_2451" d="M0 0H1.209V1.209H0z" class="cls-1"/>
            </g>
        </g>
        <g id="Group_3848" transform="translate(28.419 21.767)">
            <g id="Group_3847">
                <path id="Rectangle_2452" d="M0 0H1.209V1.209H0z" class="cls-1"/>
            </g>
        </g>
        <g id="Group_3850" transform="translate(2.419)">
            <g id="Group_3849">
                <path id="Rectangle_2453" d="M0 0H8.465V1.209H0z" class="cls-1"/>
            </g>
        </g>
        <g id="Group_3852">
            <g id="Group_3851">
                <path id="Rectangle_2454" d="M0 0H1.209V1.209H0z" class="cls-1"/>
            </g>
        </g>
    </g>
</svg>
